# Blender v2.82 (sub 7) OBJ File: ''
# www.blender.org
mtllib untitled.mtl
o Cube
v 1.000000 1.000000 -1.000000
v 1.000000 -1.000000 -1.000000
v 1.000000 1.000000 1.000000
v 1.000000 -1.000000 1.000000
v -1.000000 1.000000 -1.000000
v -1.000000 -1.000000 -1.000000
v -1.000000 1.000000 1.000000
v -1.000000 -1.000000 1.000000
vt 1.000000 0.000000
vt 1.000000 0.500000
vt 0.500000 0.500000
vt 0.500000 0.000000
vt 0.000000 1.000000
vt 0.000000 0.500000
vt 0.500000 1.000000
vt 1.153880 0.370187
vt 1.248643 0.719784
vt 0.906585 0.829849
vt 0.951171 0.444651
vt 0.748643 0.280216
vt 1.406585 0.170151
vt 0.500000 0.500000
vt 0.000000 0.500000
vt 0.000000 0.000000
vt 0.500000 0.000000
vt 0.653880 0.629813
vn 0.0000 1.0000 0.0000
vn 0.0000 0.0000 1.0000
vn -1.0000 0.0000 0.0000
vn 0.0000 -1.0000 0.0000
vn 1.0000 0.0000 0.0000
vn 0.0000 0.0000 -1.0000
usemtl Material.001
s off
f 1/1/1 5/2/1 7/3/1 3/4/1
f 4/5/2 3/6/2 7/3/2 8/7/2
f 8/8/3 7/9/3 5/10/3 6/11/3
f 6/11/4 2/12/4 4/13/4 8/8/4
f 2/14/5 1/15/5 3/16/5 4/17/5
f 6/11/6 5/10/6 1/18/6 2/12/6
